HIERARCHY
ROOT Hips
{
	OFFSET 0.000000 213.258469 0.000000
	CHANNELS 6 Xposition Yposition Zposition Xrotation Yrotation Zrotation 
	JOINT Spine
	{
		OFFSET -0.057500 18.534302 -2.042900
		CHANNELS 3 Xrotation Yrotation Zrotation
		JOINT Spine1
		{
			OFFSET 0.152733 15.116297 -0.302700
			CHANNELS 3 Xrotation Yrotation Zrotation
			JOINT Spine1_split
			{
				OFFSET 0.152733 15.116297 -0.302700
				CHANNELS 3 Xrotation Yrotation Zrotation
				JOINT Spine2
				{
					OFFSET 0.152733 15.116297 -0.302700
					CHANNELS 3 Xrotation Yrotation Zrotation
					JOINT Neck
					{
						OFFSET 0.879800 30.689789 2.800200
						CHANNELS 3 Xrotation Yrotation Zrotation
						JOINT Head
						{
							OFFSET 0.154400 19.089386 6.327400
							CHANNELS 3 Xrotation Yrotation Zrotation
							JOINT HeadTop_End
							{
								OFFSET -0.090200 37.198914 12.932600
								CHANNELS 3 Xrotation Yrotation Zrotation
								End Site
								{
									OFFSET 0.000000 0.000000 0.000000
								}
							}
							JOINT RightEye
							{
								OFFSET -7.208700 15.216705 18.698000
								CHANNELS 3 Xrotation Yrotation Zrotation
								End Site
								{
									OFFSET 0.000000 0.000000 0.000000
								}
							}
							JOINT LeftEye
							{
								OFFSET 6.583300 15.572906 18.857599
								CHANNELS 3 Xrotation Yrotation Zrotation
								End Site
								{
									OFFSET 0.000000 0.000000 0.000000
								}
							}
						}
					}
					JOINT LeftShoulder
					{
						OFFSET 6.351950 9.506897 1.245000
						CHANNELS 3 Xrotation Yrotation Zrotation
						JOINT LeftShoulder_split
						{
							OFFSET 6.351950 9.506897 1.245000
							CHANNELS 3 Xrotation Yrotation Zrotation
							JOINT LeftArm
							{
								OFFSET 21.589767 0.944519 -3.635400
								CHANNELS 3 Xrotation Yrotation Zrotation
								JOINT LeftForeArm
								{
									OFFSET 59.458931 0.000000 -0.000000
									CHANNELS 3 Xrotation Yrotation Zrotation
									JOINT LeftHand
									{
										OFFSET 52.744682 0.000000 -0.000000
										CHANNELS 3 Xrotation Yrotation Zrotation
										JOINT LeftHandMiddle1
										{
											OFFSET 27.018738 0.000000 -0.000000
											CHANNELS 3 Xrotation Yrotation Zrotation
											JOINT LeftHandMiddle2
											{
												OFFSET 7.267807 0.000000 0.000000
												CHANNELS 3 Xrotation Yrotation Zrotation
												JOINT LeftHandMiddle3
												{
													OFFSET 6.382828 0.000000 0.000000
													CHANNELS 3 Xrotation Yrotation Zrotation
													JOINT LeftHandMiddle4
													{
														OFFSET 6.056519 0.000000 0.000000
														CHANNELS 3 Xrotation Yrotation Zrotation
														End Site
														{
															OFFSET 0.000000 0.000000 0.000000
														}
													}
												}
											}
										}
										JOINT LeftHandThumb1
										{
											OFFSET 10.972931 -3.485687 5.581335
											CHANNELS 3 Xrotation Yrotation Zrotation
											JOINT LeftHandThumb2
											{
												OFFSET 7.363785 -4.251495 4.251482
												CHANNELS 3 Xrotation Yrotation Zrotation
												JOINT LeftHandThumb3
												{
													OFFSET 5.747437 -3.318298 3.318285
													CHANNELS 3 Xrotation Yrotation Zrotation
													JOINT LeftHandThumb4
													{
														OFFSET 4.141098 -2.390869 2.390863
														CHANNELS 3 Xrotation Yrotation Zrotation
														End Site
														{
															OFFSET 0.000000 0.000000 0.000000
														}
													}
												}
											}
										}
										JOINT LeftHandIndex1
										{
											OFFSET 26.571350 -0.389832 5.172790
											CHANNELS 3 Xrotation Yrotation Zrotation
											JOINT LeftHandIndex2
											{
												OFFSET 6.607498 0.000000 -0.000000
												CHANNELS 3 Xrotation Yrotation Zrotation
												JOINT LeftHandIndex3
												{
													OFFSET 5.865524 0.000000 -0.000000
													CHANNELS 3 Xrotation Yrotation Zrotation
													JOINT LeftHandIndex4
													{
														OFFSET 5.346085 0.000000 -0.000000
														CHANNELS 3 Xrotation Yrotation Zrotation
														End Site
														{
															OFFSET 0.000000 0.000000 0.000000
														}
													}
												}
											}
										}
										JOINT LeftHandRing1
										{
											OFFSET 25.260437 0.333191 -4.011058
											CHANNELS 3 Xrotation Yrotation Zrotation
											JOINT LeftHandRing2
											{
												OFFSET 6.514114 0.000000 0.000000
												CHANNELS 3 Xrotation Yrotation Zrotation
												JOINT LeftHandRing3
												{
													OFFSET 5.830185 0.000000 0.000000
													CHANNELS 3 Xrotation Yrotation Zrotation
													JOINT LeftHandRing4
													{
														OFFSET 6.062103 0.000000 0.000000
														CHANNELS 3 Xrotation Yrotation Zrotation
														End Site
														{
															OFFSET 0.000000 0.000000 0.000000
														}
													}
												}
											}
										}
										JOINT LeftHandPinky1
										{
											OFFSET 21.936798 -0.474731 -8.608942
											CHANNELS 3 Xrotation Yrotation Zrotation
											JOINT LeftHandPinky2
											{
												OFFSET 6.074158 0.000000 0.000000
												CHANNELS 3 Xrotation Yrotation Zrotation
												JOINT LeftHandPinky3
												{
													OFFSET 4.158493 0.000000 0.000000
													CHANNELS 3 Xrotation Yrotation Zrotation
													JOINT LeftHandPinky4
													{
														OFFSET 4.546494 0.000000 0.000000
														CHANNELS 3 Xrotation Yrotation Zrotation
														End Site
														{
															OFFSET 0.000000 0.000000 0.000000
														}
													}
												}
											}
										}
									}
								}
							}
						}
					}
					JOINT RightShoulder
					{
						OFFSET -5.932150 9.566543 1.017200
						CHANNELS 3 Xrotation Yrotation Zrotation
						JOINT RightShoulder_split
						{
							OFFSET -5.932150 9.566543 1.017200
							CHANNELS 3 Xrotation Yrotation Zrotation
							JOINT RightArm
							{
								OFFSET -22.279423 0.825836 -4.611200
								CHANNELS 3 Xrotation Yrotation Zrotation
								JOINT RightForeArm
								{
									OFFSET -57.108730 0.000000 -0.000000
									CHANNELS 3 Xrotation Yrotation Zrotation
									JOINT RightHand
									{
										OFFSET -54.636559 0.000000 -0.000000
										CHANNELS 3 Xrotation Yrotation Zrotation
										JOINT RightHandMiddle1
										{
											OFFSET -26.522858 0.000000 0.000000
											CHANNELS 3 Xrotation Yrotation Zrotation
											JOINT RightHandMiddle2
											{
												OFFSET -6.352310 0.000000 0.000000
												CHANNELS 3 Xrotation Yrotation Zrotation
												JOINT RightHandMiddle3
												{
													OFFSET -6.073853 0.000000 0.000000
													CHANNELS 3 Xrotation Yrotation Zrotation
													JOINT RightHandMiddle4
													{
														OFFSET -7.614822 0.000000 0.000000
														CHANNELS 3 Xrotation Yrotation Zrotation
														End Site
														{
															OFFSET 0.000000 0.000000 0.000000
														}
													}
												}
											}
										}
										JOINT RightHandThumb1
										{
											OFFSET -10.884506 -4.141998 4.472391
											CHANNELS 3 Xrotation Yrotation Zrotation
											JOINT RightHandThumb2
											{
												OFFSET -7.145309 -4.125336 4.125345
												CHANNELS 3 Xrotation Yrotation Zrotation
												JOINT RightHandThumb3
												{
													OFFSET -5.636047 -3.253967 3.253973
													CHANNELS 3 Xrotation Yrotation Zrotation
													JOINT RightHandThumb4
													{
														OFFSET -4.778717 -2.759003 2.758990
														CHANNELS 3 Xrotation Yrotation Zrotation
														End Site
														{
															OFFSET 0.000000 0.000000 0.000000
														}
													}
												}
											}
										}
										JOINT RightHandIndex1
										{
											OFFSET -26.152145 -0.525452 5.316575
											CHANNELS 3 Xrotation Yrotation Zrotation
											JOINT RightHandIndex2
											{
												OFFSET -6.597137 0.000000 -0.000000
												CHANNELS 3 Xrotation Yrotation Zrotation
												JOINT RightHandIndex3
												{
													OFFSET -5.409225 0.000000 0.000000
													CHANNELS 3 Xrotation Yrotation Zrotation
													JOINT RightHandIndex4
													{
														OFFSET -5.802872 0.000000 0.000000
														CHANNELS 3 Xrotation Yrotation Zrotation
														End Site
														{
															OFFSET 0.000000 0.000000 0.000000
														}
													}
												}
											}
										}
										JOINT RightHandRing1
										{
											OFFSET -25.242569 0.095215 -4.210791
											CHANNELS 3 Xrotation Yrotation Zrotation
											JOINT RightHandRing2
											{
												OFFSET -5.821381 0.000000 0.000000
												CHANNELS 3 Xrotation Yrotation Zrotation
												JOINT RightHandRing3
												{
													OFFSET -6.125381 0.000000 0.000000
													CHANNELS 3 Xrotation Yrotation Zrotation
													JOINT RightHandRing4
													{
														OFFSET -6.805115 0.000000 0.000000
														CHANNELS 3 Xrotation Yrotation Zrotation
														End Site
														{
															OFFSET 0.000000 0.000000 0.000000
														}
													}
												}
											}
										}
										JOINT RightHandPinky1
										{
											OFFSET -23.154938 -0.553802 -8.610584
											CHANNELS 3 Xrotation Yrotation Zrotation
											JOINT RightHandPinky2
											{
												OFFSET -5.728821 0.000000 0.000000
												CHANNELS 3 Xrotation Yrotation Zrotation
												JOINT RightHandPinky3
												{
													OFFSET -3.530136 0.000000 0.000000
													CHANNELS 3 Xrotation Yrotation Zrotation
													JOINT RightHandPinky4
													{
														OFFSET -4.635925 0.000000 0.000000
														CHANNELS 3 Xrotation Yrotation Zrotation
														End Site
														{
															OFFSET 0.000000 0.000000 0.000000
														}
													}
												}
											}
										}
									}
								}
							}
						}
					}
				}
			}
		}
	}
	JOINT LeftUpLeg
	{
		OFFSET 20.196501 -14.277100 0.076500
		CHANNELS 3 Xrotation Yrotation Zrotation
		JOINT LeftLeg
		{
			OFFSET -2.171801 -92.030228 1.714900
			CHANNELS 3 Xrotation Yrotation Zrotation
			JOINT LeftFoot
			{
				OFFSET 2.171799 -82.438347 -4.383700
				CHANNELS 3 Xrotation Yrotation Zrotation
				JOINT LeftToeBase
				{
					OFFSET 1.872601 -20.435301 22.940201
					CHANNELS 3 Xrotation Yrotation Zrotation
					JOINT LeftToe_End
					{
						OFFSET 0.979799 -0.168600 19.301701
						CHANNELS 3 Xrotation Yrotation Zrotation
						End Site
						{
							OFFSET 0.000000 0.000000 0.000000
						}
					}
				}
			}
		}
	}
	JOINT RightUpLeg
	{
		OFFSET -19.350901 -15.749893 0.602600
		CHANNELS 3 Xrotation Yrotation Zrotation
		JOINT RightLeg
		{
			OFFSET 1.442940 -92.151535 1.775000
			CHANNELS 3 Xrotation Yrotation Zrotation
			JOINT RightFoot
			{
				OFFSET -1.442940 -81.349838 -5.438200
				CHANNELS 3 Xrotation Yrotation Zrotation
				JOINT RightToeBase
				{
					OFFSET -0.888700 -20.439501 22.941299
					CHANNELS 3 Xrotation Yrotation Zrotation
					JOINT RightToe_End
					{
						OFFSET -1.669399 -0.484300 19.837601
						CHANNELS 3 Xrotation Yrotation Zrotation
						End Site
						{
							OFFSET 0.000000 0.000000 0.000000
						}
					}
				}
			}
		}
	}
}
MOTION
Frames: 4
Frame Time: 0.016667
0.025648 213.000732 -0.210411 -0.016357 -0.904938 -0.816495 -0.119622 0.578866 -0.638539 -0.245958 1.065438 -0.321534 0.000000 0.000000 0.000000 -0.252271 1.429099 1.771787 8.427593 0.578653 3.798097 -5.292115 4.060938 -5.492190 0.000000 -0.000000 0.000000 0.000000 -0.000000 0.000000 0.000000 -0.000000 0.000000 -5.285932 -10.493821 -13.598782 0.000000 0.000000 0.000000 17.067919 -28.233121 -66.816585 0.000001 -9.291039 0.000019 -11.492966 6.076526 -2.146715 0.445642 4.440817 -20.097908 0.256664 1.716692 -17.005621 0.038515 0.671345 -6.565870 -0.000001 0.000000 0.000003 -2.869005 3.737988 9.040668 12.471513 25.898109 0.629992 -17.726591 -15.285796 3.803384 -0.000002 0.000000 -0.000003 0.722041 5.242870 -19.056458 0.227576 1.618583 -16.006202 0.038542 0.671644 -6.568818 0.000000 0.000000 -0.000002 -1.275382 0.689762 -24.655250 0.394365 2.114932 -21.122691 0.038516 0.671368 -6.566035 -0.000001 -0.000001 0.000000 -3.278179 -3.337710 -25.924260 0.433114 2.212545 -22.148992 0.038518 0.671419 -6.566541 -0.000001 -0.000001 0.000001 -2.479332 -0.181179 13.871418 0.000000 0.000000 0.000000 21.245329 38.438133 60.557427 -0.000005 10.825342 -0.000013 -14.442199 0.541936 0.114712 1.068311 -5.657307 22.565803 0.287519 -1.612608 20.217693 0.025316 -0.485499 5.970825 -0.000004 -0.000001 0.000002 -6.843522 -4.635844 -19.349917 11.513017 -15.494718 5.712752 -16.634968 13.071248 -16.107355 0.000001 0.000000 0.000001 1.030103 -6.398578 15.661904 0.131288 -1.099138 13.622122 0.025317 -0.485504 5.970870 -0.000004 0.000002 -0.000001 -1.022081 -1.296857 27.059056 0.416624 -1.927114 24.395948 0.025319 -0.485512 5.970866 -0.000001 0.000001 -0.000004 -2.356982 0.080207 32.964542 0.636204 -2.351632 30.272802 0.025320 -0.485507 5.970937 0.000000 -0.000001 0.000000 -5.126355 10.961071 2.078052 6.760534 -0.079076 -0.160869 -1.854540 6.103810 -0.130207 -0.007278 0.000002 -0.000000 -0.000000 0.000002 0.000000 -3.629665 0.648236 1.461604 5.201233 -0.155128 0.060843 -1.533416 2.879732 -0.658667 -0.005829 -0.000001 -0.000000 0.000000 -0.000000 -0.000000 
0.018342 212.990082 -0.228604 -0.101982 -0.909388 -0.787168 -0.115301 0.578496 -0.647866 -0.246337 1.065438 -0.321433 0.000000 0.000000 0.000000 -0.252644 1.429100 1.771402 9.023388 0.578652 3.711335 -5.278888 4.040872 -5.420189 0.000000 -0.000001 0.000000 0.000000 -0.000001 0.000000 0.000000 -0.000001 0.000000 -5.251697 -10.446661 -13.582731 0.000000 0.000000 0.000000 16.989238 -28.206128 -66.816483 -0.000002 -9.260420 -0.000016 -11.516471 6.065689 -2.068368 0.447435 4.445708 -20.092578 0.256666 1.716693 -17.005617 0.038593 0.672078 -6.573093 0.000000 0.000001 -0.000003 -2.870380 3.737091 9.039524 12.468095 25.898973 0.625936 -17.723853 -15.278090 3.806185 0.000001 -0.000000 -0.000001 0.720101 5.237842 -19.046573 0.227500 1.618298 -16.003362 0.038537 0.671645 -6.568800 -0.000001 -0.000001 0.000000 -1.273478 0.693246 -24.651225 0.394362 2.114924 -21.122700 0.038600 0.672130 -6.573646 0.000001 0.000004 0.000001 -3.273877 -3.328854 -25.922993 0.433124 2.212551 -22.148977 0.038600 0.672096 -6.573192 -0.000000 0.000002 -0.000004 -2.469946 -0.170793 13.854573 0.000000 0.000000 0.000000 21.151656 38.388491 60.595806 0.000009 10.812405 -0.000010 -14.399400 0.550377 0.141320 1.068701 -5.657734 22.572600 0.287580 -1.612749 20.219756 0.025410 -0.486375 5.981577 -0.000001 -0.000000 0.000002 -6.843622 -4.645752 -19.348017 11.513032 -15.494706 5.712742 -16.630254 13.060928 -16.110292 0.000000 -0.000002 -0.000001 1.028979 -6.394231 15.664223 0.131371 -1.099498 13.626742 0.025408 -0.486271 5.980210 -0.000000 0.000002 -0.000006 -1.022488 -1.295777 27.056924 0.416680 -1.927249 24.397808 0.025424 -0.486545 5.983588 0.000000 -0.000001 -0.000002 -2.354407 0.078336 32.952972 0.636046 -2.351363 30.269025 0.025417 -0.486405 5.981992 -0.000000 0.000000 0.000001 -5.020920 10.960238 2.044892 6.735112 -0.068697 -0.160867 -1.842615 6.099694 -0.131134 -0.007277 0.000000 -0.000000 -0.000000 0.000000 -0.000000 -3.612462 0.640756 1.432191 5.351200 -0.137784 0.059215 -1.614363 2.876790 -0.658248 -0.005829 -0.000001 0.000000 -0.000000 -0.000000 -0.000000 
0.043839 212.950241 -0.313169 -0.150100 -0.856829 -0.786755 -0.046969 0.572234 -0.631702 -0.220144 1.065438 -0.302348 0.000000 0.000000 0.000000 -0.226611 1.429100 1.785174 9.627499 0.583346 3.618796 -5.263819 4.023291 -5.353794 -0.000000 0.000000 0.000000 -0.000000 0.000000 0.000000 -0.000000 0.000000 0.000000 -5.158189 -10.383058 -13.555523 0.000000 0.000000 0.000000 16.753156 -28.246949 -66.696210 0.000009 -9.271828 0.000017 -11.552618 5.928501 -1.799221 0.481673 4.538779 -20.116796 0.256760 1.717002 -17.008848 0.038847 0.674277 -6.594700 0.000002 -0.000001 -0.000002 -2.794793 3.842559 9.082486 12.460061 25.895397 0.609238 -17.703353 -15.219871 3.827420 -0.000002 -0.000001 -0.000002 0.739390 5.297076 -18.979974 0.226839 1.615986 -15.979941 0.038466 0.670951 -6.561918 0.000001 0.000001 -0.000003 -1.442631 0.376573 -24.940069 0.394368 2.114923 -21.122688 0.038927 0.674956 -6.601401 -0.000001 -0.000003 -0.000001 -3.210458 -3.198548 -25.904539 0.433559 2.213642 -22.160566 0.039093 0.676416 -6.615670 0.000001 -0.000002 -0.000002 -2.443551 -0.121518 13.788338 0.000000 0.000000 0.000000 20.890076 38.356963 60.581066 -0.000001 10.924177 0.000008 -14.243667 0.715396 0.309655 1.075900 -5.662608 22.731037 0.290205 -1.619878 20.312914 0.026427 -0.495994 6.100471 0.000000 0.000001 -0.000002 -6.856461 -4.664551 -19.316458 11.513889 -15.496781 5.712709 -16.612360 13.034219 -16.118382 -0.000002 0.000000 0.000001 1.026197 -6.364559 15.771165 0.130273 -1.094960 13.569297 0.025035 -0.482775 5.937162 0.000001 0.000002 -0.000003 -1.018581 -1.322959 27.202367 0.420901 -1.936523 24.522911 0.026784 -0.499290 6.141147 -0.000002 0.000001 -0.000000 -2.328396 0.017558 33.059584 0.635090 -2.349727 30.245888 0.025613 -0.488241 6.004589 0.000000 0.000002 0.000000 -5.114393 10.956217 2.066939 6.972279 -0.121112 -0.186074 -1.944335 6.093277 -0.098886 -0.007277 0.000004 -0.000000 0.000000 0.000002 0.000000 -3.715001 0.692954 1.460751 5.628396 -0.208937 -0.016080 -1.745192 2.872694 -0.604503 -0.005829 -0.000001 -0.000000 -0.000000 0.000000 -0.000000 
0.049968 212.890121 -0.401513 -0.257017 -0.793670 -0.740179 0.074449 0.567173 -0.650224 -0.166754 1.065439 -0.302600 0.000000 0.000000 0.000000 -0.173194 1.429099 1.782729 10.237106 0.592541 3.542397 -5.251388 3.990468 -5.274681 0.000000 -0.000000 0.000000 0.000000 -0.000000 0.000000 0.000000 -0.000000 0.000000 -5.009097 -10.254188 -13.515516 0.000000 0.000000 0.000000 16.385929 -28.231308 -66.503489 -0.000009 -9.247992 0.000017 -11.654011 5.761044 -1.450131 0.496125 4.577735 -20.148211 0.255042 1.711375 -16.951360 0.038532 0.671514 -6.567562 0.000002 -0.000002 0.000001 -2.798897 3.842755 9.068919 12.458289 25.913345 0.574319 -17.688863 -15.195057 3.836965 -0.000000 -0.000002 -0.000001 0.754320 5.323150 -19.270423 0.226947 1.616343 -15.983432 0.038827 0.674142 -6.593351 0.000000 -0.000002 0.000000 -1.443157 0.382997 -24.977109 0.394363 2.114926 -21.122686 0.039511 0.679994 -6.650841 -0.000003 0.000000 -0.000001 -3.168669 -3.113429 -25.890257 0.433759 2.214128 -22.165646 0.039719 0.681792 -6.668503 0.000002 0.000001 -0.000002 -2.399029 -0.045431 13.705406 0.000000 0.000000 0.000000 20.441376 38.293339 60.593620 0.000013 11.021403 0.000008 -14.000886 0.905714 0.507096 1.075194 -5.651282 22.858372 0.292548 -1.626178 20.395609 0.027529 -0.506135 6.225550 0.000000 -0.000000 0.000002 -6.843179 -4.750213 -19.266468 11.550661 -15.574986 5.705097 -16.564197 12.952497 -16.142532 0.000000 -0.000001 -0.000001 1.028368 -6.371293 15.775980 0.130708 -1.096763 13.592295 0.025428 -0.486487 5.982745 -0.000003 0.000000 -0.000000 -0.990952 -1.402062 27.392554 0.429853 -1.956010 24.786509 0.029634 -0.525036 6.458933 -0.000000 0.000000 -0.000000 -2.363102 0.012160 33.378042 0.643559 -2.364176 30.451842 0.028006 -0.510560 6.280095 0.000000 -0.000003 -0.000000 -5.138200 10.938893 2.036021 7.199250 -0.120920 -0.193277 -2.034980 6.076903 -0.084030 0.000479 0.000005 -0.000000 -0.000000 -0.000000 -0.000000 -3.864903 0.689542 1.441785 6.144454 -0.274803 -0.088970 -2.007213 2.861298 -0.553978 -0.005830 -0.000001 -0.000000 0.000000 0.000000 0.000000 
